<?xml version="1.0" standalone="no"?>
<!DOCTYPE svg PUBLIC "-//W3C//DTD SVG 20010904//EN"
 "http://www.w3.org/TR/2001/REC-SVG-20010904/DTD/svg10.dtd">
<svg version="1.0" xmlns="http://www.w3.org/2000/svg"
 width="1080.000000pt" height="1080.000000pt" viewBox="0 0 1080.000000 1080.000000"
 preserveAspectRatio="xMidYMid meet">

<g transform="translate(0.000000,1080.000000) scale(0.100000,-0.100000)"
fill="#000000" stroke="none">
<path d="M0 5400 l0 -5400 2415 0 c1603 0 2415 3 2415 10 0 6 16 10 35 10 19
0 35 -4 35 -10 0 -7 213 -10 620 -10 407 0 620 3 620 10 0 6 18 10 40 10 22 0
40 -4 40 -10 0 -7 770 -10 2290 -10 l2290 0 0 5400 0 5400 -5400 0 -5400 0 0
-5400z m5065 2015 c89 -25 154 -59 207 -108 57 -55 78 -94 85 -161 7 -66 -10
-125 -50 -178 -63 -83 -148 -108 -234 -69 -66 30 -69 49 -18 99 51 50 69 96
63 164 -11 106 -99 177 -232 186 -139 9 -255 -35 -351 -132 -103 -103 -158
-240 -175 -433 -29 -330 81 -592 295 -700 85 -43 259 -55 383 -26 l72 17 0
171 0 172 -26 27 c-23 22 -36 26 -83 26 -61 0 -81 11 -81 45 1 47 1 47 290 46
150 0 274 -2 276 -3 9 -10 13 -55 5 -67 -5 -8 -36 -18 -71 -22 -104 -12 -104
-14 -108 -242 l-3 -192 -27 -13 c-63 -31 -180 -73 -217 -77 -22 -3 -71 -10
-110 -16 -88 -14 -291 -5 -366 15 -270 75 -448 285 -490 583 -13 93 -6 263 16
352 19 80 77 200 129 270 105 140 298 250 491 281 83 12 258 4 330 -15z m1474
-35 c122 -41 203 -122 217 -217 12 -84 -34 -166 -112 -199 -62 -26 -140 -10
-164 35 -8 16 -4 22 24 39 55 32 70 63 63 129 -5 47 -12 62 -42 93 -96 99
-349 70 -413 -46 -29 -54 -37 -118 -22 -174 20 -75 75 -117 298 -229 108 -54
212 -106 230 -116 52 -27 149 -131 179 -193 21 -44 28 -74 31 -143 4 -82 2
-91 -27 -150 -36 -72 -69 -112 -126 -151 -145 -99 -343 -131 -537 -88 -133 29
-206 73 -253 154 -30 51 -42 140 -26 189 17 49 71 103 117 116 67 19 99 14
135 -20 l33 -31 -27 -16 c-34 -21 -49 -58 -49 -123 1 -77 34 -135 97 -168 45
-23 61 -26 150 -26 83 1 109 5 153 24 117 52 178 179 141 292 -18 53 -54 95
-120 140 -59 40 -96 58 -269 135 -278 122 -381 281 -325 499 9 33 27 77 41
100 49 76 164 143 285 164 87 16 244 6 318 -19z m-379 -1690 c256 -38 463 -99
925 -273 452 -170 443 -168 605 -132 55 12 105 16 185 12 95 -4 120 -9 185
-36 41 -17 91 -42 111 -54 l36 -22 -101 3 c-132 5 -255 -19 -747 -143 -247
-62 -548 -120 -725 -140 -168 -18 -240 -17 -129 3 159 29 389 104 605 197 80
34 159 65 275 105 l50 17 -80 18 c-89 19 -332 81 -470 119 -153 43 -395 103
-500 124 -257 52 -308 57 -595 56 -309 0 -415 -13 -665 -81 -129 -35 -398
-129 -465 -163 -19 -10 -84 -41 -145 -70 -60 -29 -147 -74 -193 -101 -45 -27
-84 -49 -86 -49 -6 0 -125 -73 -213 -130 l-78 -52 235 6 c289 7 405 19 525 53
35 10 -68 -66 -130 -96 -170 -81 -330 -103 -922 -126 -213 -8 -449 -20 -523
-25 -464 -37 -773 -132 -966 -298 -90 -78 -140 -141 -190 -240 -28 -54 -33
-60 -28 -32 21 111 106 272 189 355 86 86 132 119 259 184 140 72 338 133 686
212 338 76 471 111 635 164 169 56 220 78 526 232 280 141 344 169 569 250
254 91 549 157 795 177 118 9 415 -3 555 -24z m2306 -646 c154 -40 273 -139
352 -294 47 -91 46 -96 -7 -48 -159 143 -388 171 -926 114 -132 -14 -305 -32
-385 -40 -273 -29 -605 -46 -885 -45 -334 1 -451 11 -250 21 284 15 611 70
1155 193 332 75 490 104 645 119 69 7 244 -5 301 -20z m-2292 -583 c30 -33 1
-80 -39 -65 -21 9 -30 50 -13 68 18 21 32 20 52 -3z m-1193 -20 c20 -12 41
-32 47 -46 10 -21 8 -29 -11 -51 -20 -23 -25 -25 -50 -13 -30 14 -35 40 -12
63 24 24 18 32 -27 36 -76 6 -99 3 -126 -17 -56 -42 -31 -102 53 -125 100 -28
132 -41 163 -71 26 -25 32 -39 32 -72 0 -71 -53 -112 -151 -120 -113 -9 -211
46 -195 109 9 37 42 52 67 30 24 -21 24 -53 2 -70 -17 -11 -15 -14 12 -25 17
-6 47 -11 68 -11 21 1 35 -3 32 -8 -13 -21 77 33 91 56 16 24 16 27 -3 52 -21
28 -47 40 -143 67 -147 41 -170 156 -44 224 50 28 142 24 195 -8z m2279 14
c21 -13 9 -25 -25 -25 l-35 0 0 -185 0 -185 85 0 85 0 0 75 c0 73 1 75 25 75
25 0 25 -1 25 -90 l0 -90 -179 0 c-165 0 -179 1 -177 18 2 12 12 17 35 17 l32
0 0 185 0 185 -36 -3 c-26 -3 -35 0 -35 12 0 8 8 16 18 18 25 6 170 0 182 -7z
m731 -5 c0 -8 0 -97 0 -197 -1 -119 2 -183 9 -183 5 0 10 -8 11 -17 0 -11 3
-13 6 -5 7 17 33 15 33 -4 0 -12 -10 -14 -52 -12 -46 3 -53 6 -56 25 -3 23 -3
23 -40 -6 -44 -33 -76 -37 -117 -11 -87 54 -94 204 -13 280 30 28 106 28 136
0 12 -12 22 -19 22 -18 1 2 2 32 2 68 l2 65 -28 -3 c-17 -2 -32 2 -37 10 -11
17 13 25 73 24 35 -1 48 -5 49 -16z m-4618 -26 c10 -19 15 -39 12 -44 -3 -4
-2 -10 3 -12 14 -6 74 -167 66 -179 -4 -7 -3 -9 4 -5 9 5 45 -79 47 -109 0 -5
6 -11 13 -11 6 -1 19 -2 27 -3 8 0 15 -8 15 -16 0 -12 -17 -15 -90 -15 -73 0
-90 3 -90 15 0 10 10 15 31 15 33 0 33 -4 4 80 l-12 35 -88 0 -88 0 -18 -52
c-9 -28 -15 -54 -11 -57 3 -3 18 -6 34 -6 19 0 28 -5 28 -16 0 -13 -15 -15
-90 -13 -69 1 -90 5 -90 15 0 8 2 14 4 14 2 0 12 3 22 7 12 4 15 3 10 -6 -6
-10 -3 -9 12 0 12 7 19 15 18 17 -2 2 11 42 30 90 19 48 51 130 71 182 20 52
41 98 47 102 6 4 23 8 37 8 19 0 29 -8 42 -36z m675 -156 c1 -170 4 -194 19
-206 15 -10 49 -8 63 5 2 2 7 24 10 49 6 56 24 58 28 4 3 -34 -2 -45 -26 -70
-28 -28 -37 -30 -97 -21 -5 1 -19 8 -30 17 -17 13 -21 30 -25 129 -3 63 -1
115 3 115 4 0 2 6 -5 14 -9 9 -19 11 -30 5 -28 -15 -30 7 -3 25 14 9 34 35 46
59 20 39 38 67 44 67 1 0 3 -87 3 -192z m3498 130 l-1 -62 58 3 c45 2 57 -1
57 -13 0 -11 -14 -16 -57 -18 l-58 -3 3 -115 c2 -63 6 -118 8 -122 6 -10 55
-10 71 0 6 4 13 28 15 52 4 54 22 56 26 2 2 -32 -3 -45 -27 -70 -32 -35 -57
-40 -101 -17 -44 23 -52 47 -51 155 2 110 -4 137 -25 119 -7 -6 -18 -8 -23 -4
-6 3 7 23 28 44 22 22 42 50 46 63 7 21 24 48 30 48 2 0 2 -28 1 -62z m-3112
-71 c22 -12 49 -37 59 -55 27 -45 27 -126 1 -172 -22 -38 -92 -80 -134 -80
-45 0 -103 41 -127 90 -24 47 -31 110 -12 110 6 0 9 6 6 14 -3 7 5 31 19 52
13 22 24 35 24 31 0 -5 12 1 28 12 36 27 87 26 136 -2z m871 2 c36 -22 75 -82
75 -118 0 -17 -10 -20 -82 -25 -46 -4 -96 -5 -112 -4 -25 3 -28 0 -31 -29 -1
-18 1 -31 5 -28 4 3 11 -6 14 -19 13 -52 116 -59 155 -11 24 32 45 33 35 3 -8
-26 -38 -52 -78 -69 -37 -16 -112 2 -142 35 -30 32 -46 65 -40 82 4 10 2 12
-6 8 -16 -10 -5 64 17 110 22 45 78 85 122 85 17 1 48 -9 68 -20z m350 1 c21
-24 37 -26 29 -5 -5 13 7 15 79 15 69 0 85 -3 83 -15 -3 -23 -14 -29 -31 -15
-22 18 -20 4 21 -120 32 -100 54 -137 54 -93 0 22 41 143 49 143 3 0 7 16 8
34 1 28 -3 35 -18 38 -11 2 -21 8 -22 13 -1 6 27 11 66 13 61 3 67 1 67 -17 0
-13 -5 -18 -13 -15 -8 3 -18 -1 -24 -8 -11 -14 -83 -205 -83 -220 0 -20 -46
-59 -63 -52 -18 7 -49 62 -42 74 3 5 2 10 -3 12 -13 5 -70 158 -59 158 6 0 3
6 -8 13 -10 8 -15 19 -11 25 3 5 0 9 -6 7 -42 -10 -57 -19 -67 -41 -12 -26
-23 -29 -51 -14 -14 8 -18 18 -15 41 l4 31 -25 -23 c-34 -31 -46 -81 -42 -169
l3 -75 33 -3 c20 -2 32 -9 32 -18 0 -11 -18 -14 -90 -14 -82 0 -90 2 -90 19 0
15 6 19 25 18 l26 -2 0 118 c0 154 0 145 -9 129 -10 -16 -42 -5 -42 14 0 10
14 14 50 14 47 0 50 -2 57 -31 l9 -31 13 25 c24 46 77 59 106 27z m817 6 c42
-18 56 -34 64 -72 7 -38 -27 -74 -54 -58 -26 17 -27 45 -1 66 20 15 22 19 9
28 -8 5 -36 10 -61 10 -37 0 -52 -5 -73 -26 -23 -23 -26 -35 -26 -91 0 -77 18
-110 66 -119 46 -9 79 1 109 33 17 19 28 24 35 17 7 -7 -1 -23 -25 -52 -48
-55 -103 -65 -167 -31 -118 65 -110 240 14 294 42 18 67 18 110 1z m328 -6
c41 -21 80 -80 80 -120 0 -22 -1 -23 -140 -25 -47 -1 -85 -4 -84 -6 0 -2 4
-21 8 -41 14 -77 97 -103 156 -48 52 49 70 35 25 -19 -64 -75 -185 -58 -232
32 -8 15 -11 38 -8 50 5 18 4 19 -5 7 -18 -24 -2 79 19 115 17 31 90 75 124
75 10 0 36 -9 57 -20z m-3136 -6 c3 -9 6 -66 6 -127 0 -62 4 -117 8 -123 9
-14 72 -26 72 -14 0 6 7 10 15 10 33 0 46 44 43 141 -3 93 -3 94 -28 94 -16 0
-25 6 -25 15 0 12 13 15 55 15 l55 0 3 -142 3 -143 25 0 c19 0 22 -3 13 -12
-16 -18 -100 -22 -98 -6 1 7 1 22 0 32 -1 18 -4 17 -29 -8 -53 -50 -132 -42
-160 18 -8 16 -13 58 -13 99 1 108 -6 137 -35 137 -23 0 -31 10 -17 23 3 4 28
7 54 7 33 0 49 -4 53 -16z m496 -4 c0 -16 -7 -20 -34 -20 -44 0 -66 9 -66 26
0 10 14 14 50 14 43 0 50 -3 50 -20z m2022 -117 l3 -138 25 0 c16 0 26 -7 28
-18 3 -16 -4 -18 -79 -15 -52 2 -84 7 -86 15 -2 6 7 13 22 15 l27 3 -1 120 c0
119 0 120 -23 120 -14 0 -24 7 -26 18 -3 14 5 17 52 17 l55 0 3 -137z"/>
<path d="M7840 4312 c-41 -13 -57 -42 -59 -107 -2 -72 16 -128 47 -144 29 -15
76 4 92 37 20 42 21 138 2 173 -18 30 -56 49 -82 41z"/>
<path d="M3285 4335 c-10 -36 -22 -65 -27 -65 -5 0 -6 -4 -3 -10 3 -5 1 -19
-5 -30 -10 -19 -8 -20 65 -20 41 0 75 2 75 5 0 3 -5 13 -10 23 -6 9 -21 48
-34 87 -13 38 -29 71 -34 73 -5 1 -18 -27 -27 -63z"/>
<path d="M3400 4240 c0 -5 5 -10 11 -10 5 0 7 5 4 10 -3 6 -8 10 -11 10 -2 0
-4 -4 -4 -10z"/>
<path d="M4300 4279 c-19 -26 -22 -41 -18 -104 4 -91 21 -115 83 -115 32 0 46
6 64 25 12 14 19 30 16 35 -4 6 -2 10 2 10 15 0 -3 127 -21 155 -13 20 -24 25
-61 25 -37 0 -47 -4 -65 -31z"/>
<path d="M4256 4275 c-9 -26 -7 -32 5 -12 6 10 9 21 6 23 -2 3 -7 -2 -11 -11z"/>
<path d="M5230 4312 c-14 -2 -33 -11 -42 -19 -21 -19 -40 -71 -28 -75 5 -2 45
-2 89 0 69 3 79 6 74 20 -18 59 -46 81 -93 74z"/>
<path d="M6395 4050 c-3 -6 1 -7 9 -4 18 7 21 14 7 14 -6 0 -13 -4 -16 -10z"/>
<path d="M6714 4310 c-26 -10 -54 -48 -54 -72 0 -19 28 -25 111 -20 51 3 56 5
52 26 -10 53 -64 85 -109 66z"/>
</g>
</svg>
